<?xml version="1.0" standalone="no"?>
<!DOCTYPE svg PUBLIC "-//W3C//DTD SVG 20010904//EN"
 "http://www.w3.org/TR/2001/REC-SVG-20010904/DTD/svg10.dtd">
<svg version="1.0" xmlns="http://www.w3.org/2000/svg"
 width="1024.000000pt" height="1024.000000pt" viewBox="0 0 1024.000000 1024.000000"
 preserveAspectRatio="xMidYMid meet">
<metadata>
Created by potrace 1.14, written by Peter Selinger 2001-2017
</metadata>
<g transform="translate(0.000000,1024.000000) scale(0.100000,-0.100000)"
fill="#000000" stroke="none">
<path d="M2690 7781 c-90 -29 -163 -90 -208 -174 l-27 -52 0 -270 0 -270 29
-58 c35 -68 88 -120 160 -153 51 -24 51 -24 434 -24 l382 0 0 383 0 384 -30
61 c-35 69 -92 125 -159 156 -43 19 -64 21 -301 23 -140 1 -266 -2 -280 -6z
m532 -176 c24 -17 54 -51 68 -75 l25 -45 0 -280 0 -280 -280 0 -280 0 -45 25
c-24 14 -58 44 -75 68 l-30 44 -3 196 c-4 219 2 253 51 309 60 68 85 74 319
71 l206 -3 44 -30z"/>
<path d="M2779 7461 l-39 -39 0 -139 c0 -129 2 -143 22 -168 34 -43 75 -55
193 -55 116 0 155 11 195 54 23 26 25 36 28 144 4 135 -6 180 -49 216 -30 25
-35 26 -171 26 l-140 0 -39 -39z"/>
<path d="M3625 7765 c-25 -24 -25 -27 -25 -193 0 -156 2 -171 21 -196 18 -22
28 -26 76 -26 l55 0 -2 -72 c-4 -151 -1 -176 22 -198 16 -14 35 -20 70 -20
l48 0 0 -140 0 -140 -64 0 -64 0 -4 126 c-3 118 -4 127 -27 145 -30 24 -72 24
-102 0 -24 -19 -24 -20 -27 -275 l-3 -256 68 66 c81 79 208 165 301 204 l67
29 5 48 5 48 57 5 c64 6 87 25 88 73 0 46 -40 77 -100 77 l-50 0 0 54 c0 67
-20 86 -92 86 l-48 0 0 70 0 70 70 0 70 0 0 -54 c0 -47 4 -57 26 -75 18 -14
41 -21 70 -21 l44 0 0 -48 c0 -65 27 -92 93 -92 l47 0 0 -44 c0 -61 29 -96 80
-96 51 0 80 35 80 96 l0 44 65 0 65 0 0 -47 c1 -68 18 -87 88 -93 l57 -5 3
-53 c3 -53 4 -54 47 -73 34 -15 49 -17 65 -9 33 17 40 44 40 145 0 89 -2 98
-25 120 -19 20 -34 25 -75 25 l-50 0 0 54 c0 67 -20 86 -92 86 l-48 0 0 50 c0
69 -30 100 -95 100 l-45 0 0 65 0 65 65 0 65 0 0 -44 c0 -29 7 -52 21 -70 18
-22 28 -26 74 -26 l54 0 3 -56 c3 -48 7 -60 30 -77 30 -23 67 -18 98 13 15 15
20 34 20 70 l0 50 64 0 64 0 4 -126 c3 -118 4 -127 27 -145 29 -24 72 -24 101
-1 16 13 24 32 28 70 l5 52 63 0 64 0 0 -45 c0 -56 32 -95 80 -95 46 0 70 30
70 90 l0 50 40 0 c97 0 145 76 85 135 -23 24 -30 25 -145 25 l-120 0 0 65 0
65 41 0 c41 0 78 14 91 34 16 23 8 83 -13 102 -18 16 -37 19 -126 19 -98 0
-106 -2 -124 -24 -13 -16 -19 -39 -19 -72 l0 -49 -70 0 -70 0 0 49 c0 33 -6
56 -19 72 l-19 24 -322 0 -322 0 -24 -28 c-22 -26 -24 -36 -24 -143 l0 -114
-65 0 -65 0 0 45 c0 35 -6 52 -25 70 -24 25 -26 25 -215 25 l-190 0 0 70 0 70
50 0 c37 0 55 5 70 20 28 28 26 75 -5 105 -22 23 -31 25 -125 25 -94 0 -103
-2 -125 -25z"/>
<path d="M4205 7765 c-50 -49 -20 -125 50 -125 72 0 104 86 49 129 -35 28 -69
26 -99 -4z"/>
<path d="M5502 7770 c-28 -26 -30 -90 -4 -113 30 -27 87 -22 111 9 28 35 26
69 -4 99 -30 31 -73 32 -103 5z"/>
<path d="M6075 7765 c-49 -48 -16 -125 54 -125 47 0 71 24 71 73 0 71 -76 102
-125 52z"/>
<path d="M7005 7776 c-66 -21 -98 -42 -146 -93 -82 -87 -84 -99 -84 -486 l0
-339 52 -18 c29 -10 69 -28 90 -40 37 -20 47 -21 343 -18 296 3 306 4 348 26
61 32 120 95 148 157 25 53 25 55 22 327 -3 267 -3 274 -28 321 -30 59 -96
121 -158 150 -44 20 -64 22 -297 24 -183 2 -261 -1 -290 -11z m511 -155 c54
-25 101 -83 114 -143 5 -27 10 -118 10 -202 0 -177 -13 -234 -62 -285 -61 -63
-74 -65 -380 -69 l-278 -4 0 276 c0 301 3 321 58 380 55 59 87 66 302 66 168
0 201 -3 236 -19z"/>
<path d="M7102 7466 l-37 -34 0 -150 c0 -136 2 -152 20 -172 34 -39 77 -50
190 -50 116 0 155 11 195 55 24 26 25 31 25 164 0 210 -11 221 -219 221 l-136
0 -38 -34z"/>
<path d="M6533 7640 c-32 -13 -56 -55 -49 -85 18 -73 108 -89 141 -24 20 38
19 54 -7 83 -27 29 -55 38 -85 26z"/>
<path d="M6362 7477 c-46 -49 -12 -127 56 -127 43 0 72 30 72 75 0 68 -82 101
-128 52z"/>
<path d="M5803 7348 c-12 -6 -27 -24 -34 -41 -15 -36 1 -73 44 -97 24 -13 30
-13 54 0 43 24 59 61 44 97 -12 29 -47 54 -74 52 -7 0 -22 -5 -34 -11z"/>
<path d="M6095 7348 c-68 -37 -55 -125 21 -144 68 -17 115 90 58 135 -30 23
-49 26 -79 9z"/>
<path d="M6289 7210 c-70 -6 -89 -21 -89 -71 0 -69 20 -79 160 -79 l120 0 0
-96 0 -97 38 7 c20 3 56 6 80 6 l42 0 0 139 c0 131 -1 142 -22 166 -22 25 -27
26 -148 28 -69 1 -150 0 -181 -3z"/>
<path d="M5502 7050 c-28 -26 -30 -90 -4 -113 30 -27 87 -22 111 9 28 35 26
69 -4 99 -30 31 -73 32 -103 5z"/>
<path d="M4200 6900 c-29 -29 -25 -42 13 -36 94 15 107 18 107 24 0 35 -88 44
-120 12z"/>
<path d="M4492 6908 c-22 -22 -13 -38 21 -38 17 0 49 -4 70 -9 43 -10 50 6 17
39 -23 23 -88 28 -108 8z"/>
<path d="M5061 6894 c-18 -23 -21 -41 -21 -138 l0 -112 71 -69 c38 -39 95
-107 126 -152 l57 -83 143 0 c139 0 145 1 168 25 25 24 25 27 25 195 0 168 0
171 -25 195 -19 20 -34 25 -75 25 l-50 0 0 53 c0 64 -19 87 -73 87 -52 0 -77
-30 -77 -92 l0 -48 -65 0 -65 0 0 44 c0 61 -29 96 -80 96 -30 0 -43 -6 -59
-26z m417 -331 l-3 -68 -137 -2 -138 -3 0 70 0 70 140 0 141 0 -3 -67z"/>
<path d="M5640 6900 c-28 -28 -26 -75 5 -105 30 -30 64 -32 99 -4 30 24 35 72
10 107 -20 29 -85 31 -114 2z"/>
<path d="M5926 6898 c-14 -22 -19 -69 -17 -175 1 -65 24 -93 76 -93 61 0 75
27 75 147 0 90 -3 106 -20 123 -29 29 -95 28 -114 -2z"/>
<path d="M6217 6902 c-23 -25 -22 -85 1 -105 25 -23 38 -21 89 8 49 29 56 57
23 93 -26 28 -90 30 -113 4z"/>
<path d="M4310 6764 c-14 -2 -56 -9 -95 -15 -362 -58 -668 -368 -734 -743 -7
-38 -11 -320 -11 -775 l0 -716 -71 -33 c-98 -46 -194 -142 -242 -242 -220
-460 255 -933 711 -709 304 149 390 530 182 805 -43 57 -109 109 -188 149
l-52 26 0 704 c0 472 4 721 11 757 32 156 158 317 303 388 83 41 190 70 261
70 67 0 176 -28 254 -65 97 -46 214 -161 259 -255 64 -131 62 -107 62 -960 0
-477 4 -807 10 -859 34 -268 180 -504 404 -652 160 -106 308 -149 510 -149
189 0 341 44 494 143 227 147 378 388 412 658 6 51 10 352 10 764 l0 680 58
30 c79 41 181 146 220 226 34 68 62 178 62 244 0 190 -121 385 -291 471 -209
105 -442 69 -610 -93 -201 -194 -218 -496 -41 -720 42 -53 148 -129 217 -155
l40 -16 3 -673 c3 -735 1 -770 -54 -886 -126 -265 -429 -400 -699 -309 -152
52 -276 159 -344 298 -61 123 -61 124 -61 998 0 736 -2 802 -19 885 -84 409
-431 705 -851 728 -52 3 -106 3 -120 1z"/>
<path d="M2765 6615 c-20 -19 -25 -34 -25 -75 l0 -50 -53 0 c-55 0 -76 -12
-90 -52 -9 -24 11 -76 33 -88 10 -6 95 -10 188 -10 201 0 211 4 219 87 l5 51
51 5 c37 3 56 11 69 27 26 32 23 76 -7 105 -24 25 -27 25 -195 25 -168 0 -171
0 -195 -25z"/>
<path d="M3352 6624 c-49 -34 -48 -97 2 -130 61 -39 137 30 110 101 -7 17 -54
45 -76 45 -8 0 -24 -7 -36 -16z"/>
<path d="M7376 6619 c-22 -18 -26 -28 -26 -76 l0 -55 -75 4 c-64 3 -74 1 -69
-12 3 -8 15 -51 26 -95 17 -64 19 -98 15 -180 -3 -55 -9 -110 -12 -122 -6 -18
-2 -23 20 -29 38 -9 77 6 92 36 8 16 13 67 13 138 l0 112 48 0 c65 0 92 27 92
93 l0 47 70 0 70 0 0 -50 c0 -37 5 -55 20 -70 28 -28 75 -26 105 5 23 22 25
31 25 125 0 94 -2 103 -25 125 -24 25 -27 25 -193 25 -156 0 -171 -2 -196 -21z"/>
<path d="M3480 6470 c-23 -23 -27 -82 -6 -99 10 -9 21 1 52 46 51 76 51 73 10
73 -23 0 -43 -7 -56 -20z"/>
<path d="M5780 6463 c-59 -76 47 -167 115 -98 30 30 32 64 4 99 -29 37 -89 37
-119 -1z"/>
<path d="M2475 6325 c-51 -50 -19 -125 54 -125 47 0 71 24 71 72 0 70 -76 102
-125 53z"/>
<path d="M3195 6325 c-20 -19 -25 -34 -25 -74 l0 -50 -122 0 c-120 1 -123 0
-145 -26 -20 -23 -23 -37 -23 -120 0 -83 3 -97 23 -120 22 -26 25 -27 145 -26
l122 0 0 -69 0 -70 -50 0 c-62 0 -90 -23 -90 -75 0 -22 8 -43 20 -55 18 -18
33 -20 160 -20 l140 0 0 74 c0 56 -4 75 -15 80 -11 4 -15 21 -15 67 0 52 3 62
20 66 14 4 20 14 20 33 0 15 3 48 6 74 7 45 6 46 -20 46 -27 0 -27 0 -24 68
l3 67 46 3 c45 3 46 3 69 59 l23 56 -22 19 c-19 15 -41 18 -123 18 -92 0 -101
-2 -123 -25z"/>
<path d="M5645 6325 c-23 -22 -25 -31 -25 -125 0 -94 2 -103 25 -125 30 -31
66 -32 100 -2 25 21 26 26 26 127 0 101 -1 106 -26 127 -34 30 -70 29 -100 -2z"/>
<path d="M5935 6327 c-25 -21 -26 -26 -26 -127 0 -101 1 -106 26 -127 41 -36
56 -31 42 15 -6 20 -11 88 -11 150 -1 61 -2 112 -3 112 -1 0 -14 -10 -28 -23z"/>
<path d="M7515 6325 c-23 -22 -25 -31 -25 -125 0 -94 2 -103 25 -125 42 -43
103 -28 125 29 13 36 13 155 -1 195 -19 55 -82 69 -124 26z"/>
<path d="M4468 6253 l-3 -48 -137 -2 -137 -3 -3 36 -3 36 -62 -42 c-56 -37
-153 -146 -153 -171 0 -5 47 -9 105 -9 l105 0 0 -48 c0 -67 24 -92 90 -92 l50
0 0 -70 0 -70 -50 0 c-61 0 -90 -24 -90 -73 0 -49 34 -77 93 -77 l47 0 0 -44
c0 -61 29 -96 80 -96 30 0 43 6 59 26 20 25 21 39 21 285 l0 259 65 0 65 0 0
-119 c0 -133 9 -156 65 -167 50 -9 83 25 87 89 l3 52 39 3 38 3 -5 41 c-7 54
-59 154 -106 206 -32 35 -45 42 -75 42 -32 0 -36 3 -36 25 0 21 -9 30 -52 50
-29 14 -63 25 -75 25 -19 0 -22 -6 -25 -47z"/>
<path d="M2471 6034 c-12 -15 -21 -37 -21 -49 0 -12 9 -34 21 -49 17 -22 28
-26 70 -26 l49 0 0 -104 c0 -111 11 -161 40 -176 10 -6 63 -10 118 -10 90 0
100 2 120 23 28 30 29 80 2 107 -15 15 -33 20 -70 20 l-50 0 0 120 c0 115 -1
122 -25 145 -22 23 -31 25 -129 25 -101 0 -105 -1 -125 -26z"/>
<path d="M7372 6040 c-17 -16 -22 -32 -22 -70 l0 -50 -88 0 -87 0 -48 -66
c-55 -76 -53 -84 22 -92 l51 -5 0 -63 0 -64 -145 0 -145 0 1 -67 c0 -38 3 -98
8 -135 10 -93 17 -97 164 -98 l117 0 0 -44 c0 -61 29 -96 80 -96 30 0 43 6 59
26 19 24 21 40 21 145 l0 119 50 0 c37 0 55 5 70 20 19 19 20 33 20 268 0 247
0 249 -23 270 -29 28 -76 28 -105 2z"/>
<path d="M7660 6040 c-21 -21 -25 -57 -21 -180 2 -45 7 -59 28 -78 20 -18 33
-22 57 -18 55 11 66 36 66 146 0 83 -3 101 -21 124 -26 33 -79 36 -109 6z"/>
<path d="M5645 5895 c-46 -45 -23 -118 40 -131 74 -14 118 88 59 135 -35 28
-69 26 -99 -4z"/>
<path d="M5936 5899 c-20 -16 -26 -29 -26 -59 0 -30 6 -43 26 -59 23 -18 41
-21 120 -21 52 0 94 4 94 9 0 6 -18 31 -41 57 -23 26 -46 58 -52 71 -14 31
-82 32 -121 2z"/>
<path d="M3932 5621 c-9 -5 -12 -27 -10 -72 l3 -64 38 -3 c51 -4 77 19 77 68
0 59 -62 100 -108 71z"/>
<path d="M4635 5605 c-23 -22 -25 -31 -25 -125 0 -94 2 -103 25 -125 19 -20
34 -25 74 -25 l51 0 -3 -137 -2 -138 -67 -3 -68 -3 0 51 c0 41 -5 56 -25 75
-30 31 -66 32 -99 3 -20 -19 -25 -33 -27 -78 -6 -199 -5 -200 166 -200 l124 0
0 -140 0 -140 -50 0 c-40 0 -55 -5 -74 -25 -31 -30 -32 -66 -2 -99 23 -25 56
-31 175 -27 l42 1 0 504 0 505 -42 3 -43 3 -5 57 c-4 41 -11 61 -25 72 -30 23
-73 19 -100 -9z"/>
<path d="M5645 5605 c-20 -19 -25 -34 -25 -75 l0 -50 -53 0 c-40 0 -58 -5 -70
-18 -25 -27 -22 -87 5 -112 21 -19 34 -20 285 -20 l263 0 0 -44 c0 -65 27 -94
93 -98 l52 -3 3 -52 c4 -64 37 -98 86 -89 54 11 56 17 56 162 l0 134 -70 0
-70 0 0 53 c0 70 -18 87 -88 87 l-52 0 0 50 c0 41 -5 56 -25 75 -24 25 -27 25
-195 25 -168 0 -171 0 -195 -25z"/>
<path d="M2537 5480 c-80 -7 -87 -18 -87 -145 0 -93 2 -103 23 -123 27 -26 73
-29 105 -6 18 12 22 25 22 70 l0 54 50 0 c81 0 118 49 88 115 -6 14 -21 27
-32 30 -42 8 -113 10 -169 5z"/>
<path d="M3333 5459 c-15 -15 -17 -77 -3 -99 15 -24 21 -6 18 54 -2 46 -5 55
-15 45z"/>
<path d="M3195 5315 c-30 -30 -32 -64 -4 -99 43 -55 129 -23 129 49 0 70 -76
100 -125 50z"/>
<path d="M3920 5265 l0 -75 58 -1 c137 -3 166 1 190 27 29 33 28 69 -3 99 -23
24 -31 25 -135 25 l-110 0 0 -75z"/>
<path d="M4345 5315 c-30 -30 -32 -64 -4 -99 47 -59 149 -15 135 59 -13 63
-86 86 -131 40z"/>
<path d="M5410 5190 c0 -87 4 -150 9 -150 6 0 21 10 35 23 26 23 30 53 27 185
-1 54 -24 92 -56 92 -13 0 -15 -23 -15 -150z"/>
<path d="M7515 5315 c-30 -29 -32 -64 -5 -98 17 -21 31 -27 73 -29 l52 -3 2
-70 c0 -38 2 -94 2 -122 1 -39 6 -58 21 -73 28 -28 75 -26 105 5 25 24 25 27
25 195 0 168 0 171 -25 195 -22 23 -31 25 -125 25 -94 0 -103 -2 -125 -25z"/>
<path d="M6911 5263 c-1 -24 1 -43 3 -43 8 0 12 48 5 66 -5 13 -8 7 -8 -23z"/>
<path d="M2765 5175 c-20 -19 -25 -34 -25 -74 l0 -50 -121 0 c-112 1 -123 -1
-145 -22 -22 -21 -24 -30 -24 -126 0 -121 12 -143 78 -143 53 0 72 23 72 88
l0 52 140 0 140 0 0 -44 c0 -67 29 -94 100 -97 195 -6 200 -2 200 144 0 95 -2
105 -23 125 -17 16 -36 22 -70 22 l-47 0 0 40 c0 51 -16 85 -47 99 -13 6 -64
11 -114 11 -82 0 -92 -2 -114 -25z"/>
<path d="M4205 5175 c-20 -19 -25 -34 -25 -75 l0 -50 -48 0 c-66 0 -92 -20
-92 -71 0 -56 26 -79 90 -79 l50 0 0 -274 0 -274 35 -73 c19 -41 35 -79 35
-86 0 -8 13 -13 35 -13 35 0 35 0 35 -44 0 -61 29 -96 80 -96 30 0 43 6 60 27
20 26 21 35 18 271 -3 243 -3 244 -27 263 -16 13 -39 19 -73 19 l-49 0 3 68 3
67 52 3 c64 4 98 37 89 87 -9 44 -40 65 -97 65 l-48 0 0 122 c1 120 0 123 -26
145 -34 30 -70 29 -100 -2z"/>
<path d="M5804 5188 c-28 -13 -44 -49 -44 -98 l0 -40 -50 0 c-59 0 -90 -26
-90 -75 0 -47 35 -75 93 -75 l47 0 0 -44 c0 -61 29 -96 80 -96 51 0 80 35 80
96 l0 44 120 0 c140 0 160 10 160 79 0 51 -26 71 -92 71 l-48 0 0 50 c0 41 -5
56 -25 75 -22 23 -31 25 -117 24 -51 0 -103 -5 -114 -11z"/>
<path d="M7376 5179 c-25 -20 -26 -24 -26 -128 0 -99 2 -109 23 -129 31 -29
77 -29 105 1 20 21 22 34 22 126 0 95 -2 104 -25 126 -30 30 -64 32 -99 4z"/>
<path d="M3332 5168 c-17 -17 -15 -83 3 -98 13 -11 15 -5 15 49 0 33 -1 61 -3
61 -2 0 -8 -5 -15 -12z"/>
<path d="M7082 5027 c-21 -22 -22 -32 -22 -196 0 -169 0 -172 25 -196 24 -25
27 -25 193 -25 156 0 171 2 196 21 19 15 26 30 26 55 0 50 -29 74 -90 74 l-50
0 0 50 c0 71 -29 100 -100 100 l-50 0 0 50 c0 37 -5 55 -20 70 -28 28 -81 26
-108 -3z"/>
<path d="M3326 4874 c-11 -29 -6 -81 9 -94 13 -11 15 -5 15 49 0 58 -11 79
-24 45z"/>
<path d="M2690 4762 c-30 -2 -61 -8 -68 -15 -23 -19 -32 -55 -21 -84 17 -45
36 -52 140 -53 83 0 100 3 123 21 30 24 35 71 11 106 -16 23 -76 31 -185 25z"/>
<path d="M5441 4763 l-33 -4 5 -217 c3 -167 9 -230 22 -272 9 -30 20 -59 22
-64 17 -26 25 46 24 215 l0 189 50 0 c40 0 55 5 74 25 53 52 18 125 -60 125
-24 0 -49 2 -57 3 -7 2 -28 2 -47 0z"/>
<path d="M6138 4761 c-69 -7 -87 -26 -88 -93 l0 -48 -193 0 c-254 0 -237 16
-237 -221 0 -233 -15 -219 221 -219 171 0 176 1 197 23 16 17 22 36 22 70 l0
47 44 0 c65 0 94 27 98 93 l3 52 50 3 c80 5 85 14 85 164 l0 128 -59 0 c-33 0
-65 2 -73 3 -7 2 -39 1 -70 -2z"/>
<path d="M4486 4738 c-25 -35 -20 -83 10 -107 35 -28 69 -26 99 4 31 30 33 77
5 105 -29 29 -94 27 -114 -2z"/>
<path d="M6911 4688 c0 -31 3 -37 8 -24 7 18 3 66 -5 66 -2 0 -4 -19 -3 -42z"/>
<path d="M2475 4595 l-25 -24 0 -461 0 -461 25 -24 c30 -31 66 -32 100 -2 l26
22 2 195 2 195 57 5 c64 6 87 25 88 73 0 46 -40 77 -100 77 l-50 0 1 143 c1
239 1 245 -21 267 -28 28 -75 26 -105 -5z"/>
<path d="M3052 4597 c-47 -50 -15 -127 51 -127 69 0 101 77 52 125 -31 32 -74
33 -103 2z"/>
<path d="M3933 4613 c-25 -10 -12 -29 47 -65 l60 -37 0 34 c0 57 -53 90 -107
68z"/>
<path d="M6940 4600 c-12 -12 -20 -33 -20 -55 0 -72 86 -104 129 -49 28 35 26
69 -4 99 -30 31 -77 33 -105 5z"/>
<path d="M3330 4590 c-9 -16 -8 -18 5 -14 8 4 15 12 15 20 0 20 -7 17 -20 -6z"/>
<path d="M2923 4468 c-71 -34 -37 -148 43 -148 23 0 74 55 74 80 0 27 -52 80
-77 79 -10 0 -28 -5 -40 -11z"/>
<path d="M7103 4470 c-47 -19 -57 -87 -18 -125 18 -19 35 -25 68 -25 l44 0 5
-52 c7 -66 31 -88 99 -88 l49 0 0 -48 c0 -66 20 -92 71 -92 69 0 79 20 79 159
l0 119 126 4 c118 3 127 4 145 27 24 30 24 72 0 102 l-19 24 -314 2 c-172 1
-323 -2 -335 -7z"/>
<path d="M6911 4398 c0 -31 3 -37 8 -24 7 18 3 66 -5 66 -2 0 -4 -19 -3 -42z"/>
<path d="M4703 4333 c-42 -3 -56 -9 -73 -30 -27 -34 -25 -69 5 -98 23 -23 31
-25 130 -25 l107 0 -7 43 c-17 113 -14 107 -50 107 -18 0 -39 1 -47 3 -7 2
-36 2 -65 0z"/>
<path d="M6220 4310 c-43 -43 -13 -130 44 -130 19 0 28 10 45 49 11 27 21 56
21 63 0 40 -76 52 -110 18z"/>
<path d="M2910 4170 c-49 -49 -26 -122 42 -128 l34 -3 11 63 c7 42 7 67 0 76
-15 19 -65 14 -87 -8z"/>
<path d="M5508 4176 c-10 -7 -18 -18 -18 -24 0 -6 27 -39 59 -72 112 -114 274
-163 429 -130 75 16 86 22 77 49 -12 38 -39 43 -236 42 l-189 0 0 50 c0 40 -5
55 -25 74 -27 28 -70 32 -97 11z"/>
<path d="M6075 4165 c-49 -48 -16 -125 54 -125 47 0 71 24 71 73 0 68 -78 100
-125 52z"/>
<path d="M7085 4165 c-25 -24 -25 -26 -25 -215 l0 -190 -65 0 c-65 0 -65 0
-65 29 0 41 -19 90 -40 101 -59 32 -120 -11 -120 -85 l0 -45 -42 0 c-38 0 -46
-5 -95 -60 -94 -104 -272 -223 -400 -268 -29 -9 -33 -16 -33 -45 0 -60 24 -71
161 -76 l119 -3 0 -179 c0 -194 6 -221 51 -240 60 -24 109 21 109 101 l0 40
138 -3 137 -2 3 -52 c2 -42 8 -56 29 -73 25 -19 39 -20 359 -20 l334 0 0 -65
0 -65 -189 0 c-104 0 -197 -3 -206 -6 -24 -9 -45 -58 -45 -104 l0 -40 -50 0
c-37 0 -55 -5 -70 -20 -28 -28 -26 -75 5 -105 24 -25 27 -25 193 -25 156 0
171 2 196 21 22 17 26 28 26 70 l0 49 70 0 70 0 0 -50 c0 -38 5 -54 22 -70 30
-27 73 -26 103 5 l25 24 0 244 c0 286 0 286 -88 295 -49 4 -52 6 -52 32 0 40
-20 89 -40 100 -59 32 -120 -11 -120 -85 l0 -45 -65 0 -65 0 0 45 c0 65 -31
95 -99 95 l-50 0 0 140 0 140 50 0 c85 0 125 64 78 124 -18 22 -28 26 -75 26
l-55 0 3 68 3 67 70 2 c39 1 94 2 123 2 63 1 92 24 92 74 0 49 -34 77 -93 77
l-47 0 0 44 c0 65 -27 94 -93 98 l-52 3 -3 52 c-2 42 -8 56 -29 73 -34 27 -69
25 -98 -5z m-25 -775 l0 -210 -210 0 -210 0 0 210 0 210 210 0 210 0 0 -210z"/>
<path d="M6795 3445 c-31 -30 -32 -66 -2 -101 18 -20 32 -27 57 -26 70 2 99
83 46 129 -35 30 -71 29 -101 -2z"/>
<path d="M7666 4169 c-20 -16 -26 -29 -26 -58 0 -47 24 -71 73 -71 71 0 102
76 52 125 -30 30 -64 32 -99 4z"/>
<path d="M2760 4020 c-17 -17 -20 -33 -20 -125 0 -121 12 -145 75 -145 62 0
75 24 75 143 0 125 -11 147 -71 147 -26 0 -46 -7 -59 -20z"/>
<path d="M4486 4018 c-14 -22 -19 -69 -17 -175 1 -65 24 -93 76 -93 63 0 75
24 75 145 0 92 -3 108 -20 125 -29 29 -95 28 -114 -2z"/>
<path d="M4904 3994 c-4 -15 -3 -38 2 -53 9 -26 58 -61 69 -49 6 6 -51 128
-60 128 -3 0 -8 -12 -11 -26z"/>
<path d="M4256 3839 c-9 -33 -30 -87 -47 -120 -23 -47 -27 -64 -19 -79 15 -28
42 -40 89 -40 l41 0 0 -140 0 -140 -50 0 c-80 0 -90 -17 -90 -145 0 -129 10
-145 93 -146 28 0 149 -1 267 -2 l215 -2 3 -52 c2 -42 8 -56 29 -73 23 -18 40
-20 184 -20 169 0 200 7 218 47 7 15 11 93 11 203 l0 180 29 0 c97 0 146 76
86 135 -23 24 -30 25 -145 25 l-120 0 0 65 0 65 89 0 88 0 -80 81 -80 81 -65
-4 c-81 -5 -102 -26 -102 -99 l0 -49 -48 0 c-66 0 -92 -20 -92 -71 0 -56 26
-79 90 -79 l50 0 0 -46 c0 -25 4 -54 10 -64 11 -21 60 -40 101 -40 29 0 29 0
29 -65 l0 -65 -65 0 -65 0 0 48 c0 63 -25 92 -79 92 -52 0 -71 -23 -71 -88 l0
-52 -70 0 -70 0 0 50 c0 37 -5 55 -20 70 -15 15 -33 20 -70 20 l-50 0 0 185
c0 113 -4 193 -11 208 -14 31 -48 47 -99 47 l-40 0 0 48 c0 38 -5 53 -23 70
-13 12 -26 22 -29 22 -2 0 -12 -27 -22 -61z"/>
<path d="M4780 3880 c-29 -29 -27 -94 2 -114 35 -25 83 -20 107 10 28 35 26
69 -4 99 -30 31 -77 33 -105 5z"/>
<path d="M2909 3731 c-16 -16 -29 -36 -29 -45 0 -43 43 -86 86 -86 23 0 74 55
74 80 0 12 -13 35 -29 51 -16 16 -39 29 -51 29 -12 0 -35 -13 -51 -29z"/>
<path d="M4648 3744 c-51 -27 -50 -102 2 -129 38 -20 52 -19 84 6 37 29 37 89
0 118 -31 25 -49 26 -86 5z"/>
<path d="M4091 3557 l-53 -55 21 -21 c29 -29 76 -27 106 4 31 30 32 66 3 100
l-23 26 -54 -54z"/>
<path d="M7511 3584 c-28 -35 -26 -69 4 -99 22 -23 31 -25 129 -25 101 0 105
1 125 26 12 15 21 37 21 49 0 12 -9 34 -21 49 -20 25 -24 26 -129 26 -105 0
-109 -1 -129 -26z"/>
<path d="M2685 3456 c-91 -29 -158 -85 -203 -171 l-27 -50 0 -270 c0 -256 1
-272 22 -317 29 -62 91 -128 150 -158 48 -25 50 -25 328 -25 272 0 281 1 327
23 56 28 122 91 151 146 21 40 22 54 25 397 l3 356 -43 12 c-24 7 -67 26 -95
42 l-53 29 -272 -1 c-191 0 -285 -4 -313 -13z m633 -413 c-4 -307 -6 -320 -69
-381 -51 -49 -108 -62 -285 -62 -182 0 -237 10 -289 52 -67 56 -75 86 -75 306
0 210 6 240 58 296 58 62 78 66 385 66 l279 0 -4 -277z"/>
<path d="M2814 3170 c-11 -4 -33 -22 -47 -40 -26 -31 -27 -35 -27 -169 0 -127
2 -141 22 -166 34 -44 75 -55 198 -55 119 0 146 8 190 55 23 25 25 35 28 143
4 135 -6 180 -49 216 -30 25 -35 26 -162 25 -73 0 -141 -4 -153 -9z"/>
<path d="M4635 3445 c-57 -56 -13 -134 70 -125 58 6 77 91 29 129 -35 28 -69
26 -99 -4z"/>
<path d="M7376 3449 c-25 -20 -26 -24 -26 -129 0 -105 1 -109 26 -129 15 -12
37 -21 49 -21 12 0 34 9 49 21 25 20 26 24 26 125 0 98 -2 107 -25 129 -30 30
-64 32 -99 4z"/>
<path d="M3933 3434 c-49 -30 -55 -57 -23 -92 29 -31 81 -33 113 -5 23 22 23
85 -1 106 -25 23 -39 21 -89 -9z"/>
<path d="M5485 3429 c-2 -8 -6 -34 -7 -59 l-3 -45 -57 -5 c-64 -6 -87 -25 -88
-73 0 -46 40 -77 100 -77 l50 0 0 -54 c0 -45 4 -58 22 -70 61 -43 128 -1 128
80 l0 44 263 0 c251 0 264 1 285 20 28 27 30 90 3 114 -15 14 -39 17 -140 17
-120 -1 -121 0 -121 23 0 22 -4 23 -99 29 -82 6 -189 27 -308 63 -15 4 -24 2
-28 -7z"/>
<path d="M3766 3298 c-9 -13 -16 -43 -16 -70 l0 -48 -50 0 c-41 0 -56 -5 -75
-25 -25 -24 -25 -27 -25 -195 0 -168 0 -171 25 -195 29 -30 73 -33 105 -7 16
13 24 32 28 70 l5 52 44 0 c33 0 50 6 68 25 25 24 25 27 25 200 0 162 -2 177
-20 195 -29 29 -94 27 -114 -2z"/>
<path d="M7657 3302 c-42 -46 -4 -132 57 -132 36 0 76 41 76 78 0 60 -93 98
-133 54z"/>
<path d="M5960 3033 c-33 -12 -50 -37 -50 -74 0 -50 35 -79 96 -79 l44 0 0
-65 0 -65 -44 0 c-32 0 -52 -6 -71 -23 -25 -21 -26 -26 -26 -127 0 -101 1
-106 26 -127 33 -29 65 -29 99 -2 22 17 26 29 26 68 l0 48 51 5 c83 8 90 22
90 166 l-1 122 51 0 c40 0 55 5 74 25 14 13 25 35 25 49 0 74 -31 86 -222 85
-84 0 -160 -3 -168 -6z"/>
<path d="M4341 2864 c-14 -18 -21 -41 -21 -70 l0 -44 -45 0 c-66 0 -95 -31
-95 -100 l0 -52 -72 2 c-151 4 -176 1 -198 -22 -27 -30 -26 -73 5 -103 24 -25
27 -25 193 -25 156 0 171 2 196 21 22 17 26 28 26 70 l0 49 140 0 140 0 0 -45
c0 -81 75 -124 128 -75 17 16 22 33 23 73 2 70 -1 149 -7 168 -8 28 -52 39
-164 39 l-110 0 0 44 c0 61 -29 96 -80 96 -30 0 -43 -6 -59 -26z"/>
<path d="M5351 2864 c-14 -18 -21 -41 -21 -70 l0 -44 -120 0 c-106 0 -122 -2
-140 -20 -62 -62 -14 -140 86 -140 l34 0 0 -48 c0 -38 5 -53 23 -70 54 -51
127 -8 127 73 l0 45 140 0 140 0 0 -45 c0 -83 78 -126 129 -72 22 25 25 62 22
325 -1 63 -24 92 -74 92 -49 0 -77 -34 -77 -93 l0 -47 -70 0 -70 0 0 54 c0 45
-4 58 -22 70 -35 25 -83 20 -107 -10z"/>
<path d="M6362 2867 c-21 -22 -22 -32 -22 -196 0 -169 0 -172 25 -196 22 -23
31 -25 125 -25 94 0 103 2 125 25 30 29 32 64 5 98 -17 21 -31 27 -73 29 l-52
3 -2 70 c-1 39 -2 94 -2 123 -1 38 -6 57 -21 72 -28 28 -81 26 -108 -3z"/>
<path d="M6650 2870 c-12 -12 -20 -33 -20 -55 0 -63 24 -75 144 -75 125 0 148
12 148 75 0 63 -23 75 -148 75 -91 0 -107 -3 -124 -20z"/>
<path d="M3776 2729 c-43 -34 -32 -110 19 -129 30 -11 82 5 95 30 17 32 11 70
-15 95 -30 30 -64 32 -99 4z"/>
</g>
</svg>
